#!OML:ASF E:/inclinewalkrobotboard/Project1/Captureday1/Session1/subject1.ASF
:FULLY-SPECIFIED
:DEGREES
13
root 0 0 0 -2.7486849580681447 -0.8125308567761989 1.2482122275052707
lowerback 9.843206119351121 -0.25905169759923863 -2.736949450677372
upperback 3.046701075340584 -0.6828108245323978 1.1319085886582514
thorax -2.170382554851279 -0.23779210895764147 2.9043764619610224
lowerneck -12.684613424836467 -2.6190242682875526 -2.6319677636105316
upperneck 28.090970521529783 -3.7186167830869445 2.6095465329172347
head 11.159960150828216 -1.587196096204313 0.8148086224879965
rclavicle -7.768892500341513E-17 9.46096469473591E-16
rhumerus -41.532302984807174 -18.936666958792145 -90.80514332301192
rradius 9.465542875954576
rwrist 13.809206085802998
rhand -18.195057424045185 27.105886818309244
rfingers 7.1250199999999815
rthumb 8.104328709196121 -2.8703883370284444
lclavicle 1.6644492668561274E-16 8.847929177441177E-16
lhumerus -32.7945786693285 4.8885450306581575 79.63905783287767
lradius 20.54742730885874
lwrist 2.291586683220654
lhand -28.450205831176348 28.795222998664325
lfingers 7.125020000000008
lthumb -1.8859201262192649 58.94211103502586
rfemur -21.450519645939433 3.1326642681617756 21.394475907577142
rtibia 42.66965160649985
rfoot -3.922662481656979 -7.388147869671613
rtoes 3.7635700996205594
lfemur 5.815251293330431 -7.48649018988067 -24.45470760078163
ltibia 23.961326610074025
lfoot -15.884514458035667 1.3906669583790916
ltoes -3.665435574196426
14
root 0 0 0 -2.220136773444964 0.18010015062677587 1.9214869653806592
lowerback 10.66765420609912 -0.7235685046137844 -3.723946553759224
upperback 2.3522940385525826 -1.4044990743694827 1.12684857629867
thorax -3.390423879701883 -0.5767804168946318 3.5076443768290613
lowerneck -13.121134578688679 -2.6764327761953512 -2.4407293037472546
upperneck 24.03875850489222 -3.6163998565348736 2.169010566428315
head 9.919864492369749 -1.6335420641082377 0.6929509987445166
rclavicle 2.2722757052125494E-15 7.113620622967644E-16
rhumerus -41.26214414738658 -21.91224275273584 -89.71716271576659
rradius 8.65542566796838
rwrist 13.753964637597083
rhand -18.277410287589465 26.405269411682198
rfingers 7.125019999999981
rthumb 8.022849632616172 -3.567544873509533
lclavicle 3.971984464582248E-15 1.0858589046424804E-15
lhumerus -30.95641269097473 1.6297421139372748 80.44909434090276
lradius 24.64865104009349
lwrist 5.511108703975187
lhand -29.05266595579418 28.725617968134987
lfingers 7.125020000000008
lthumb -2.48798377635525 58.872696057914546
rfemur -23.32087098957405 2.8323896747645327 20.86263882725818
rtibia 44.39055439692889
rfoot -3.042159931456963 -7.616208110565765
rtoes 3.9954217662345513
lfemur 7.196574219576331 -6.9816361934011955 -24.785385970165958
ltibia 24.53772350884271
lfoot -15.93826527494361 0.7845022382606794
ltoes -4.440594921841388
15
root 0 0 0 -1.8919472041956584 0.7056989356883161 2.012826391601353
lowerback 10.599722546954911 -0.9328693004949017 -4.049196209535515
upperback 1.623886886238082 -1.7187125374777772 1.041920796368923
thorax -4.140383581768418 -0.7340695642345583 3.6231897990891735
lowerneck -13.736484244919184 -2.7077607956349037 -2.2864174242997417
upperneck 20.596317715084837 -3.56920396441624 1.8795154595936039
head 8.858113825113577 -1.6661314743029658 0.6064196098237726
rclavicle 4.313146776857385E-15 5.450432914926448E-16
rhumerus -38.664010947483234 -25.011571434468216 -87.01069739265068
rradius 11.2069485406207
rwrist 14.525581287925572
rhand -19.01975544121871 26.354957856359164
rfingers 7.125019999999985
rthumb 7.308393634472705 -3.7051330783512952
lclavicle 6.425827490667099E-15 5.068304874219211E-16
lhumerus -29.94254367914417 -2.089095143879037 81.03382294548814
lradius 30.470215253507515
lwrist 9.611012438072665
lhand -29.38860354139699 28.155594847922767
lfingers 7.125020000000018
lthumb -2.788025091203954 58.255429403630686
rfemur -24.22109578372979 3.094684044239272 21.615985339567334
rtibia 44.69575849542667
rfoot -3.7817648151956633 -8.10820630219631
rtoes 3.751558709989519
lfemur 7.987267571464019 -6.562515668047799 -24.86237002793702
ltibia 25.010259344654237
lfoot -16.09263157054501 0.47513087279107324
ltoes -5.4695374018922465
16
root 0 0 0 -1.6413814134115812 0.9717159605357599 1.9342362491094574
lowerback 10.514041102962018 -1.0533240169367364 -4.027700945809557
upperback 1.1586758233015373 -1.8799465348362678 0.9587875442445812
thorax -4.596830143462309 -0.8237757038310289 3.5295868724659245
lowerneck -14.348220040636244 -2.6713527111984976 -2.2087152827770677
upperneck 17.28463254200291 -3.4244506831584878 1.599063799875388
head 7.808790570582936 -1.6505492711850096 0.5376070611255206
rclavicle 4.543604358101546E-15 6.606525851740685E-16
rhumerus -35.73707197291702 -27.083725758570555 -84.2337991468005
rradius 14.806110255947878
rwrist 15.571358380311871
rhand -19.810221136670727 26.36620991565799
rfingers 7.1250199999999895
rthumb 6.5504840587027084 -3.777236436883136
lclavicle 4.643656661232461E-15 -2.9475091550334536E-16
lhumerus -29.910690674759856 -4.197272272154526 81.40445256191198
lradius 34.2520442634219
lwrist 11.920701447574642
lhand -29.26179087552977 27.253238606550045
lfingers 7.125020000000022
lthumb -2.6265409576506613 57.30074984126342
rfemur -24.07569522374795 3.5372588321394036 22.51596249281943
rtibia 43.52856255671827
rfoot -5.097829086802668 -8.49928105007206
rtoes 3.255075051470917
lfemur 8.366432668772838 -6.514642919718824 -24.837036428962158
ltibia 25.087816763891723
lfoot -16.33151745606074 0.5167845094213761
ltoes -6.117507771054136
17
root 0 0 0 -1.3448360341393362 1.0659332686002654 1.7277942457754532
lowerback 10.453717517635885 -1.1733278184517744 -3.7633114443404843
upperback 0.8147906504776943 -2.0158353801342113 0.9145053604313494
thorax -4.934024353192572 -0.9068873590008626 3.336454551299698
lowerneck -15.117170528643676 -2.5546011908450748 -2.1498717368131053
upperneck 13.862603479532817 -3.1240132966466123 1.1492498774331694
head 6.720161118718577 -1.579284658986074 0.4260702118941082
rclavicle 3.208322125613395E-15 2.4192286721411974E-16
rhumerus -32.79441106882449 -28.64842018752862 -81.62468522775221
rradius 18.587255572156927
rwrist 16.75027847125691
rhand -20.48675621733542 26.143971963657584
rfingers 7.1250199999999895
rthumb 5.90114386716233 -4.038766841494763
lclavicle 1.6400639471647942E-15 -1.1874183882295839E-15
lhumerus -30.121644648810783 -5.39222537741627 81.64123922132369
lradius 36.605496455104635
lwrist 13.144194877105125
lhand -29.015800755814514 26.285307478397208
lfingers 7.125020000000021
lthumb -2.366565384149009 56.30952835647133
rfemur -22.948079955339423 4.085600991795227 23.21428187697686
rtibia 40.46185123445737
rfoot -6.855989508318247 -8.752908672457343
rtoes 2.3159861720278516
lfemur 8.481151398541154 -6.668555293983994 -24.738748767803706
ltibia 24.995341770202575
lfoot -16.558192089653566 0.7214086427248683
ltoes -6.538557528591717
